<?xml version="1.0" standalone="no"?><!DOCTYPE svg PUBLIC "-//W3C//DTD SVG 1.1//EN" "http://www.w3.org/Graphics/SVG/1.1/DTD/svg11.dtd"><svg t="1533366641006" class="icon" style="" viewBox="0 0 1024 1024" version="1.1" xmlns="http://www.w3.org/2000/svg" p-id="4440" xmlns:xlink="http://www.w3.org/1999/xlink" width="200" height="200"><defs><style type="text/css"></style></defs><path d="M967.445943 424.594286c-11.103086-13.984914-27.984457-21.0944-45.845943-21.0944h-14.292114c-4.476343-14.628571-15.184457-43.022629-31.261257-58.426515a110.211657 110.211657 0 0 0-77.853258-30.793142c-53.1456 1.141029-96.650971 45.348571-105.223314 89.234285h-46.635886l66.442972-224.811885c0.146286-0.482743 0.292571-1.813943 0.394971-2.311315a85.723429 85.723429 0 0 0-10.532571-65.389714 88.049371 88.049371 0 0 0-55.764114-39.643429c-47.367314-10.678857-95.041829 18.110171-105.866972 63.019886l-33.718857 114.293029a156.408686 156.408686 0 0 0-108.324571-33.1776c-41.896229 3.086629-80.0768 23.946971-107.52 55.749485-31.6416 36.644571-43.856457 88.400457-35.401143 132.286172H102.4c-17.861486 0-34.742857 7.328914-45.831314 21.313828s-15.213714 31.8464-11.146972 49.239772l102.4 439.486171c6.173257 26.477714 29.7984 45.845943 56.992915 45.845943h614.4c27.194514 0 50.805029-19.573029 56.992914-46.050743l102.4-438.447543a59.947886 59.947886 0 0 0-11.1616-50.322285zM799.451429 374.535314c13.429029-0.643657 26.360686 5.485714 36.132571 14.833372 4.066743 3.905829 7.211886 14.1312 9.742629 14.1312h-91.735772c7.387429-14.628571 25.044114-28.540343 45.860572-28.964572zM597.518629 151.054629c3.730286-15.418514 20.158171-25.629257 36.4544-22.045258 8.060343 1.828571 14.789486 6.129371 18.973257 12.843886 3.715657 5.997714 4.944457 14.453029 3.4816 21.226057l-71.153372 240.420572h-61.659428l73.903543-252.445257zM335.754971 309.423543c17.232457-19.968 41.208686-32.8704 67.510858-34.801372 26.346057-2.004114 51.785143 6.085486 71.738514 23.317943 4.637257 3.9936 10.166857 7.723886 15.842743 8.367543l-28.233143 97.192229H315.933257c-9.5232-29.257143-2.428343-68.3008 19.821714-94.076343z m582.787658 152.590628l-13.238858 58.514286H116.048457l-13.648457-58.514286h816.142629z m-99.342629 438.857143H204.8l-81.92-351.085714h775.797029l-79.477029 351.085714z" fill="" p-id="4441"></path><path d="M334.043429 628.721371a14.6432 14.6432 0 0 0-12.024686 16.837486l29.257143 175.542857a14.628571 14.628571 0 0 0 28.862171-4.798171l-29.257143-175.542857a14.599314 14.599314 0 0 0-16.837485-12.039315zM689.941943 628.721371a14.511543 14.511543 0 0 0-16.822857 12.039315l-29.257143 175.542857a14.613943 14.613943 0 1 0 28.847543 4.798171l29.257143-175.542857a14.628571 14.628571 0 0 0-12.024686-16.837486zM491.271314 625.707886a14.628571 14.628571 0 0 0-14.628571 14.6432v175.542857a14.628571 14.628571 0 1 0 29.257143 0v-175.542857a14.628571 14.628571 0 0 0-14.628572-14.6432z" fill="" p-id="4442"></path></svg>