<?xml version="1.0" standalone="no"?><!DOCTYPE svg PUBLIC "-//W3C//DTD SVG 1.1//EN" "http://www.w3.org/Graphics/SVG/1.1/DTD/svg11.dtd"><svg t="1532255930903" class="icon" style="" viewBox="0 0 1024 1024" version="1.1" xmlns="http://www.w3.org/2000/svg" p-id="4727" xmlns:xlink="http://www.w3.org/1999/xlink" width="200" height="200"><defs><style type="text/css"></style></defs><path d="M750.08 743.424H366.592c-32.768 0-60.416-23.552-65.536-55.808L248.32 368.64c-2.048-13.824 1.536-27.648 10.752-38.4 9.216-10.752 22.016-16.896 36.352-16.896l458.24-2.56c11.264 0 20.48 9.216 20.48 20.48s-9.216 20.48-20.48 20.48l-458.24 2.56c-2.56 0-4.096 1.536-5.12 2.56-0.512 1.024-2.048 2.56-1.536 5.12L341.504 680.96c2.048 12.288 12.8 21.504 25.6 21.504h383.488c11.776 0 22.016-8.192 25.088-19.456l55.296-228.352c2.56-10.752 13.824-17.92 24.576-14.848 10.752 2.56 17.92 13.824 14.848 24.576l-55.296 228.352c-7.168 29.696-33.792 50.688-65.024 50.688z" p-id="4728"></path><path d="M299.008 573.952c-9.728 0-18.432-7.168-19.968-17.408L212.992 148.48H65.024c-11.264 0-20.48-9.216-20.48-20.48s9.216-20.48 20.48-20.48H230.4c10.24 0 18.432 7.168 19.968 17.408l68.608 425.472c2.048 11.264-5.632 21.504-16.896 23.552h-3.072z" p-id="4729"></path><path d="M425.984 868.864m-54.784 0a54.784 54.784 0 1 0 109.568 0 54.784 54.784 0 1 0-109.568 0Z" p-id="4730"></path><path d="M698.88 868.864m-54.784 0a54.784 54.784 0 1 0 109.568 0 54.784 54.784 0 1 0-109.568 0Z" p-id="4731"></path><path d="M873.984 478.208c-75.776 0-137.216-61.44-137.216-137.728s61.44-137.728 137.216-137.728 137.216 61.44 137.216 137.728-61.44 137.728-137.216 137.728z m0-233.984c-53.248 0-96.256 43.52-96.256 96.768s43.52 96.768 96.256 96.768 96.256-43.52 96.256-96.768-43.008-96.768-96.256-96.768z" p-id="4732"></path><path d="M915.456 356.864h-83.968c-9.216 0-16.384-7.68-16.384-16.384 0-9.216 7.68-16.384 16.384-16.384h83.968c9.216 0 16.384 7.68 16.384 16.384 0.512 8.704-7.168 16.384-16.384 16.384z" p-id="4733"></path><path d="M873.984 404.48c-9.216 0-16.384-7.68-16.384-16.384V304.128c0-9.216 7.68-16.384 16.384-16.384s16.384 7.68 16.384 16.384v83.968c0 8.704-7.168 16.384-16.384 16.384z" p-id="4734"></path></svg>
