<?xml version="1.0" standalone="no"?><!DOCTYPE svg PUBLIC "-//W3C//DTD SVG 1.1//EN" "http://www.w3.org/Graphics/SVG/1.1/DTD/svg11.dtd"><svg t="1522815197115" class="icon" style="" viewBox="0 0 1024 1024" version="1.1" xmlns="http://www.w3.org/2000/svg" p-id="1906" xmlns:xlink="http://www.w3.org/1999/xlink" width="200" height="200"><defs><style type="text/css"></style></defs><path d="M512 1024C229.701818 1024 0 794.298182 0 512S229.701818 0 512 0c282.321455 0 512 229.701818 512 512S794.344727 1024 512 1024zM512 44.520727C254.231273 44.520727 44.544 254.208 44.544 512c0 257.768727 209.710545 467.479273 467.479273 467.479273 257.792 0 467.479273-209.733818 467.479273-467.479273C979.502545 254.208 769.792 44.520727 512 44.520727z" p-id="1907"></path><path d="M666.693818 692.177455c-5.701818 0-11.403636-2.164364-15.755636-6.493091L342.690909 377.390545c-8.704-8.704-8.704-22.784 0-31.488 8.704-8.704 22.784-8.704 31.488 0L682.426182 654.196364c8.704 8.680727 8.704 22.784 0 31.488C678.097455 690.013091 672.418909 692.177455 666.693818 692.177455z" p-id="1908"></path><path d="M354.048 692.200727c-5.701818 0-11.380364-2.187636-15.732364-6.493091-8.704-8.704-8.704-22.784 0-31.488L654.196364 338.338909c8.704-8.704 22.784-8.704 31.488 0 8.680727 8.704 8.680727 22.784 0 31.488L369.803636 685.707636C365.451636 690.013091 359.749818 692.200727 354.048 692.200727z" p-id="1909"></path></svg>