<?xml version="1.0" standalone="no"?><!DOCTYPE svg PUBLIC "-//W3C//DTD SVG 1.1//EN" "http://www.w3.org/Graphics/SVG/1.1/DTD/svg11.dtd"><svg t="1532255985723" class="icon" style="" viewBox="0 0 1024 1024" version="1.1" xmlns="http://www.w3.org/2000/svg" p-id="5435" xmlns:xlink="http://www.w3.org/1999/xlink" width="200" height="200"><defs><style type="text/css"></style></defs><path d="M912.49 477.09c3.657 8.83 5.79 18.387 5.79 28.476v357.149c0 42.257-35.272 76.524-78.801 76.524h-630.36c-43.51 0-81.71-32.147-81.71-74.418V517.545c0-10.102 5.04-31.65 8.696-40.454-33.5-8.805-58.307-38.213-58.307-73.57V275.97c0-42.271 30.91-80.897 74.416-80.897h322.473L348.045 90.148c-10.343-10.04-10.343-26.32 0-36.373 10.367-10.078 27.13-10.078 37.5 0L516.72 181.17c4.966 4.82 7.39 11.132 7.582 17.455 0.218-6.323 2.616-12.597 7.606-17.455L663.055 53.775c10.368-10.078 27.13-10.078 37.499 0 10.343 10.054 10.343 26.332 0 36.373L598.717 195.074h297.665c43.53 0 74.416 38.626 74.416 80.896v127.55c-0.001 35.358-24.757 64.764-58.308 73.57z m-99.294 411.13c29.02 0 58.381-20.046 58.381-48.203V542.35c0-28.162-20.616-74.419-49.61-74.419H549.103l1.455 420.289h262.638z m-577.818 0h262.663l1.453-420.288h-272.86c-28.997 0-49.612 21.45-49.612 49.611v322.472s2.916 47.027 58.356 48.206zM130.32 301.49v76.522c0 28.162 17.706 40.311 46.702 40.311h322.472V244.685H177.022s-47.226 6.884-46.702 56.806z m787.96 0c0-28.173-17.71-56.807-46.706-56.807H549.103v173.642h322.472c28.997 0 46.706-12.15 46.706-40.312l-0.001-76.522z" p-id="5436"></path></svg>