<?xml version="1.0" standalone="no"?><!DOCTYPE svg PUBLIC "-//W3C//DTD SVG 1.1//EN" "http://www.w3.org/Graphics/SVG/1.1/DTD/svg11.dtd"><svg t="1533550697201" class="icon" style="" viewBox="0 0 1025 1024" version="1.1" xmlns="http://www.w3.org/2000/svg" p-id="2503" xmlns:xlink="http://www.w3.org/1999/xlink" width="50.048828125" height="50"><defs><style type="text/css"></style></defs><path d="M470.016 401.248l-4.608-18.272c-40.096 3.04-85.12 5.76-135.136 8.128 1.888 6.592 3.424 12.768 4.608 18.528 56.96-3.2 102.016-6.016 135.136-8.352z" p-id="2504"></path><path d="M402.72 464.672l17.152-8.864c-7.008-13.184-14.592-27.04-22.784-41.6l-15.616 8.128c8.352 14.88 15.456 28.992 21.248 42.336z" p-id="2505"></path><path d="M356.384 472.512l16.64-9.376c-7.52-13.376-15.264-26.624-23.264-39.808l-15.36 8.352c8.544 14.528 15.84 28.16 22.016 40.832z" p-id="2506"></path><path d="M469.504 516.384c4.768 6.432 8.704 12.096 11.776 16.992 37.184-19.776 67.04-42.528 89.568-68.192l-16.128-12.448c-18.432 23.84-46.816 45.056-85.216 63.648z" p-id="2507"></path><path d="M476.16 464.672c37.536-20.448 67.2-43.552 89.056-69.248l-17.152-10.912c-19.456 25.024-47.712 46.24-84.736 63.648 3.776 4.576 8.032 10.08 12.8 16.48z" p-id="2508"></path><path d="M467.2 565.568c-16.128-12.448-31.744-24.256-46.816-35.52l-10.752 12.928 0-31.424 52.448 0 0-18.784-52.448 0 0-19.776-18.944 0 0 19.776-56.064 0 0 18.752 52.224 0c-14.4 27.232-34.976 51.456-61.696 72.768 7.008 5.76 12.128 10.24 15.36 13.44 19.04-17.664 35.744-38.048 50.176-61.12l0 85.952 18.944 0 0-78.88c16.032 12.672 30.944 25.376 44.768 38.048l12.8-16.224z" p-id="2509"></path><path d="M426.016 466.432l15.872 7.84c12.64-21.472 22.624-38.88 29.952-52.256l-17.152-9.152c-9.888 20.448-19.456 38.304-28.672 53.504z" p-id="2510"></path><path d="M727.2 545.088c0-0.864-0.192-1.696-0.32-2.688l-31.968 0 0 32.192c2.24 0 4.48 0 6.72 0 2.688 0 5.312 0 7.968 0 4.832 0 9.632 0 14.432 0.096 2.656 0.064 3.264-0.896 3.232-3.36-0.064-4.384-0.064-8.736-0.064-13.12s0-8.736 0-13.088z" p-id="2511"></path><path d="M694.784 637.472l32.16 0 0 31.136-32.16 0 0-31.136z" p-id="2512"></path><path d="M1023.52 449.792c-0.832-19.04-1.664-38.112-2.496-57.12-3.84-24.192-2.432-48.864-6.72-72.128-2.016-12.864-4-25.792-5.984-38.656-7.04-32.224-13.856-62.752-24.96-90.528-20.576-51.52-52.32-94.88-96.544-122.752-94.752-59.68-235.68-68.992-390.72-68.576-15.456 0.256-30.944 0.48-46.4 0.736-9.472 0.352-18.944 0.672-28.448 1.024-6.72 0.32-13.472 0.64-20.224 0.992-18.208 1.408-36.448 2.816-54.624 4.256-9.888 1.184-19.808 2.304-29.696 3.488-22.176 4.128-44.128 6.464-64.864 11.712-95.648 24.32-151.648 60.192-195.872 136.16-21.984 37.728-31.232 84.16-41.92 133.472-2.24 16.64-4.48 33.248-6.72 49.888-1.568 19.776-3.168 39.584-4.736 59.36-0.256 6.72-0.48 13.472-0.768 20.224-0.576 18.208-1.152 36.448-1.728 54.624l0 55.616c0.32 17.12 0.672 34.272 1.024 51.36 0.384 11.904 0.832 23.808 1.248 35.68 0.48 8.064 1.024 16.128 1.504 24.192 3.456 21.664 2.624 43.744 6.464 64.64 5.92 31.936 9.824 62.816 18.72 91.296 24.096 77.344 60.384 129.088 124.256 166.624 28.512 16.768 62.624 27.52 98.56 36.672 13.312 2.656 26.592 5.312 39.904 8 16.64 2.24 33.28 4.48 49.888 6.72 21.28 1.664 42.592 3.328 63.872 4.992 7.232 0.256 14.496 0.48 21.696 0.736 15.328 0.416 30.624 0.832 45.92 1.248 7.648 0.096 15.296 0.192 22.944 0.256l31.904 0c20.8-0.32 41.6-0.64 62.4-1.024 5.984-0.256 12-0.48 17.952-0.736 17.792-1.152 35.616-2.336 53.408-3.52 15.232-1.664 30.432-3.328 45.664-4.992 34.208-6.336 66.848-10.912 97.056-20.448 65.536-20.672 114.208-53.728 149.696-104.288 27.328-38.88 41.376-88.288 53.408-142.688 2.592-16.864 5.184-33.76 7.712-50.624 1.856-20.096 3.648-40.256 5.504-60.384 0.32-7.232 0.672-14.464 1.024-21.696 0.64-16.448 1.312-32.928 2.016-49.408l0-13.248c0.096-7.648 0.16-15.296 0.256-22.976l0-54.88c-0.192-7.808-0.352-15.616-0.512-23.424zM849.792 725.76c-11.904 24.224-31.232 37.408-58.688 37.76-20.16 0.256-40.32 0.064-60.48 0.064-0.992 0-2.016-0.096-3.456-0.192l0-30.976-32.64 0 0 31.136-475.936 0c-1.6 0-3.2 0-4.832-0.064-29.216-0.544-53.696-20.064-60.608-48.288-0.704-2.976-1.248-5.952-1.856-8.96l0-392.896c0.256-1.088 0.48-2.208 0.768-3.264 1.536-5.472 2.272-11.264 4.704-16.288 12-24.672 31.808-37.728 59.712-37.728 158.08-0.032 316.16-0.032 474.208-0.032 1.216 0 2.432 0.096 3.968 0.16l0 31.648 32.64 0 0-31.712c1.056-0.064 1.632-0.16 2.208-0.16 20.96 0 41.92-0.224 62.88 0.16 6.432 0.128 13.12 1.088 19.168 3.104 26.72 8.8 43.424 32.16 43.456 60.672 0.096 126.528 0.064 253.056 0 379.584 0 9.088-1.216 17.984-5.248 26.208z" p-id="2513"></path><path d="M697.44 479.552c6.496-0.032 13.024 0 19.552 0l10.208 0c0-10.56 0.032-20.64-0.064-30.688 0-0.576-1.024-1.6-1.568-1.6-5.088-0.064-10.144-0.064-15.232-0.064s-10.144 0-15.232 0c-0.192 0.704-0.448 1.152-0.448 1.568-0.032 9.536 0 19.04-0.096 28.576 0 2.24 1.312 2.24 2.88 2.24z" p-id="2514"></path><path d="M442.624 605.664c4.768 5.408 9.216 11.072 13.312 16.992 52.544-22.336 93.504-52.256 122.848-89.76l-15.616-13.184c-25.76 35.36-65.952 64-120.544 85.952z" p-id="2515"></path><path d="M694.816 352.352l32.128 0 0 31.2-32.128 0 0-31.2z" p-id="2516"></path></svg>