<?xml version="1.0" standalone="no"?><!DOCTYPE svg PUBLIC "-//W3C//DTD SVG 1.1//EN" "http://www.w3.org/Graphics/SVG/1.1/DTD/svg11.dtd"><svg t="1532256180186" class="icon" style="" viewBox="0 0 1024 1024" version="1.1" xmlns="http://www.w3.org/2000/svg" p-id="5812" xmlns:xlink="http://www.w3.org/1999/xlink" width="200" height="200"><defs><style type="text/css"></style></defs><path d="M188.144566 483.756749c10.643408-2.75167 78.255295-31.968086 88.910982-34.745339-28.467355-31.682583-49.629327-73.169463-76.067466-133.692908-35.120892 8.707312-95.946212 26.832112-95.946212 26.832112S183.82826 475.518111 188.144566 483.756749zM579.149864 597.307921l72.483848 81.969896c124.201743-41.921785 289.469787-207.382211 289.469787-207.382211l-83.032088-84.746126C858.071412 387.149481 777.048073 512.562818 579.149864 597.307921zM429.878143 435.795411l67.010183 35.222199c62.949704-62.907749 115.165949-162.375158 115.165949-162.375158L507.594155 269.608437C507.594155 269.608437 466.680327 382.783033 429.878143 435.795411zM661.412426 466.107787C766.340197 414.283468 908.198066 237.346663 908.198066 237.346663l-82.003666-77.251432c0 0-118.646214 174.896332-231.178173 233.630015L661.412426 466.107787zM612.054275 723.608465l-191.866842-101.289917 0 0 188.428533 0L608.615966 510.973624 411.623383 510.973624l0-51.389414L283.149337 459.58421l0 51.389414L69.025585 510.973624l0 111.344924 162.733315 0c-48.331775 65.440431-72.826656 93.02672-162.634054 148.381445l65.809845 97.240695c81.267908-59.954487 112.820532-97.508801 148.214646-142.843312l0 196.993606 128.474047 0L411.623383 725.097376l140.52757 82.069157L612.054275 723.608465zM877.985974 602.059132c0 0-89.454358 160.007227-356.38378 233.29437l38.994106 86.73748c265.514189-64.771189 376.363833-205.608821 399.182538-228.109278L877.985974 602.059132zM314.861596 430.091502c0 0 81.249489 0.552585 94.510514 0-9.317203-49.381687-11.479449-70.894653-18.902512-132.454708l-113.854071 18.23327C292.294624 353.684298 307.350528 381.846708 314.861596 430.091502zM603.69898 221.973534 571.255057 108.420315c0 0-78.147848 70.292949-484.343103 78.122265l4.955872 93.77885C573.947376 290.074561 603.69898 221.973534 603.69898 221.973534z" p-id="5813"></path></svg>