<?xml version="1.0" standalone="no"?><!DOCTYPE svg PUBLIC "-//W3C//DTD SVG 1.1//EN" "http://www.w3.org/Graphics/SVG/1.1/DTD/svg11.dtd"><svg t="1522554769138" class="icon" style="" viewBox="0 0 1024 1024" version="1.1" xmlns="http://www.w3.org/2000/svg" p-id="8966" xmlns:xlink="http://www.w3.org/1999/xlink" width="200" height="200"><defs><style type="text/css"></style></defs><path d="M368.633054 511.913509 886.983222 880.591085 886.983222 140.60107 368.633054 511.913509 368.633054 511.913509ZM882.604932 20.349647C940.780017-21.173341 987.940243 2.876064 987.940243 74.233986L987.940243 948.452606C987.940243 1019.735085 940.695386 1043.799518 882.604932 1002.336931L300.041815 586.527324C241.866731 545.004336 241.951362 477.621856 300.041815 436.159268L882.604932 20.349647 882.604932 20.349647ZM36.059757 55.942218C36.059757 28.247587 58.716488 5.796664 86.538267 5.796664 114.416784 5.796664 137.016778 28.249938 137.016778 55.942218L137.016778 973.854431C137.016778 1001.549062 114.360047 1024 86.538267 1024 58.65975 1024 36.059757 1001.546711 36.059757 973.854431L36.059757 55.942218 36.059757 55.942218Z" p-id="8967"></path></svg>