<?xml version="1.0" standalone="no"?><!DOCTYPE svg PUBLIC "-//W3C//DTD SVG 1.1//EN" "http://www.w3.org/Graphics/SVG/1.1/DTD/svg11.dtd"><svg t="1522554731138" class="icon" style="" viewBox="0 0 1024 1024" version="1.1" xmlns="http://www.w3.org/2000/svg" p-id="6959" xmlns:xlink="http://www.w3.org/1999/xlink" width="200" height="200"><defs><style type="text/css"></style></defs><path d="M653.37642 507.671377 142.223095 873.297309 142.223095 139.432403 653.37642 507.671377 653.37642 507.671377ZM146.540596 20.176336C89.173222-21.002958 42.667775 2.847382 42.667775 73.61466L42.667775 940.597118C42.667775 1011.289587 89.256678 1035.154832 146.540596 994.035441L721.015329 581.66759C778.382703 540.48831 778.299247 473.663579 721.015329 432.544188L146.540596 20.176336 146.540596 20.176336ZM981.332225 55.474301C981.332225 28.008908 958.990063 5.743802 931.554565 5.743802 904.063117 5.743802 881.776905 28.011241 881.776905 55.474301L881.776905 965.788696C881.776905 993.254089 904.119067 1015.519195 931.554565 1015.519195 959.046013 1015.519195 981.332225 993.251756 981.332225 965.788696L981.332225 55.474301 981.332225 55.474301Z" p-id="6960"></path></svg>