<?xml version="1.0" standalone="no"?><!DOCTYPE svg PUBLIC "-//W3C//DTD SVG 1.1//EN" "http://www.w3.org/Graphics/SVG/1.1/DTD/svg11.dtd"><svg t="1533550860694" class="icon" style="" viewBox="0 0 1024 1024" version="1.1" xmlns="http://www.w3.org/2000/svg" p-id="4274" xmlns:xlink="http://www.w3.org/1999/xlink" width="50" height="50"><defs><style type="text/css"></style></defs><path d="M703.488973 868.864c-67.328 43.008-145.664 65.536-225.536 65.536-232.704 0-422.144-189.952-422.144-423.168 0-233.472 189.44-423.168 422.144-423.168s422.144 189.696 422.144 423.168v7.424h55.808v-7.424c0.256-126.976-50.176-249.088-140.032-338.688-89.6-89.856-211.2-140.288-337.92-140.288-126.976-0.256-248.576 50.176-338.176 140.288-43.776 43.776-78.592 95.488-102.4 152.32C12.800973 384 0.000973 447.232 0.000973 511.488c-0.256 126.976 50.176 248.832 139.776 338.688 89.6 89.856 211.2 140.544 338.176 140.288 111.104 0 218.624-38.656 304.384-109.568l15.872-13.312h-92.928l-1.792 1.28z m0 0" p-id="4275"></path><path d="M997.376973 640.256h-224.512l59.392-62.976c9.728-10.496 9.472-26.88-0.512-36.864-4.864-4.864-11.264-7.424-17.92-7.424h-0.512c-6.912 0-13.568 3.072-18.176 8.192l-101.376 107.264c-1.024 1.28-1.792 2.304-2.816 4.352-0.768 1.024-1.536 2.304-2.304 3.84-2.56 6.4-2.56 13.568 0 19.712 0.768 1.792 1.792 3.072 3.072 5.12 0.512 0.768 1.024 2.048 2.304 3.328l101.376 107.264c4.864 5.12 11.264 7.936 18.176 7.936h0.512c6.656 0 13.312-2.56 17.92-7.424 10.24-10.24 10.496-26.624 0.768-37.12L773.376973 692.48h224.512c6.912 0 13.568-2.816 18.432-7.68 4.864-4.864 7.424-11.52 7.424-18.432s-2.56-13.568-7.424-18.432c-5.376-4.864-12.032-7.68-18.944-7.68m-377.344-102.4c15.36-0.256 27.648-12.8 27.648-27.904 0-7.424-2.816-14.592-7.936-19.712-5.12-5.376-12.288-8.192-19.712-8.448h-119.808v-15.36c0.512-1.024 1.024-2.304 1.28-3.328l116.736-124.672c10.496-11.008 10.496-28.416 0-39.424-5.12-5.376-12.288-8.448-19.712-8.448-7.424 0-14.592 3.072-19.712 8.448l-106.496 114.688-106.496-114.688c-11.008-10.752-28.416-10.752-39.168 0-10.496 11.008-10.496 28.416 0 39.424l116.736 124.672c0.512 1.28 0.768 2.304 1.28 3.328v15.616h-120.064c-7.424 0-14.336 3.072-19.712 8.448-5.12 5.376-7.936 12.288-7.936 19.712 0 15.36 12.288 27.904 27.648 27.904h119.808v32.256h-119.808c-15.36 0.256-27.648 12.8-27.648 28.16s12.288 27.904 27.648 27.904h119.808V706.56c0 15.36 12.288 27.904 27.648 27.904 15.36-0.256 27.648-12.8 27.648-27.904v-80.128h119.808c15.36-0.256 27.648-12.8 27.648-27.904 0-15.36-12.288-27.904-27.648-28.16h-119.808v-32.256h120.32z m0 0" p-id="4276"></path></svg>