<?xml version="1.0" standalone="no"?><!DOCTYPE svg PUBLIC "-//W3C//DTD SVG 1.1//EN" "http://www.w3.org/Graphics/SVG/1.1/DTD/svg11.dtd"><svg t="1528870820300" class="icon" style="" viewBox="0 0 1024 1024" version="1.1" xmlns="http://www.w3.org/2000/svg" p-id="2503" xmlns:xlink="http://www.w3.org/1999/xlink" width="200" height="200"><defs><style type="text/css"></style></defs><path d="M498.095 146.134l403.416 403.415c17.387 17.387 45.576 17.387 62.963 0s17.387-45.576 0-62.963L499.888 22 35.302 486.586c-17.388 17.387-17.388 45.575 0 62.963 17.387 17.387 45.576 17.387 62.964 0L498.095 146.134zM498.817 592.073l402.693 402.693c17.387 17.387 45.576 17.387 62.963 0s17.387-45.576 0-62.963L499.888 467.219 35.302 931.804c-17.388 17.387-17.388 45.576 0 62.963 17.387 17.387 45.576 17.387 62.964 0L498.817 592.073z" p-id="2504"></path></svg>
