<?xml version="1.0" standalone="no"?><!DOCTYPE svg PUBLIC "-//W3C//DTD SVG 1.1//EN" "http://www.w3.org/Graphics/SVG/1.1/DTD/svg11.dtd"><svg t="1528104969540" class="icon" style="" viewBox="0 0 1024 1024" version="1.1" xmlns="http://www.w3.org/2000/svg" p-id="1622" xmlns:xlink="http://www.w3.org/1999/xlink" width="200" height="200"><defs><style type="text/css"></style></defs><path d="M932.355 872.294h-778.35V127.99h-0.067c0.039-0.608 0.067-1.22 0.067-1.838 0-15.464-12.536-28-28-28s-28 12.536-28 28c0 0.618 0.027 1.23 0.067 1.838h-0.067v800.304h834.35c15.464 0 28-12.536 28-28s-12.536-28-28-28z" p-id="1623"></path><path d="M240.817 763.121a27.866 27.866 0 0 0 14.202 3.89c9.584 0 18.919-4.925 24.142-13.776l169.334-286.999L622.89 638.23a28.016 28.016 0 0 0 23.447 7.808 28 28 0 0 0 20.498-13.806l186.764-325.4c7.698-13.412 3.065-30.525-10.347-38.222-13.41-7.699-30.524-3.065-38.222 10.346L636.349 572.852 462.272 401.171a28.002 28.002 0 0 0-43.777 5.707L230.93 724.777c-7.858 13.319-3.431 30.486 9.887 38.344z" p-id="1624"></path></svg>